{
  "asset": {
    "version": "2.0",
    "generator": "THREE.GLTFExporter"
  },
  "scenes": [
    {
      "name": "AuxScene",
      "nodes": [
        4
      ]
    }
  ],
  "scene": 0,
  "nodes": [
    {
      "matrix": [
        -0.9999999999999998,
        0,
        3.2584136988589307e-7,
        0,
        0,
        1,
        0,
        0,
        -3.2584136988589307e-7,
        0,
        -0.9999999999999998,
        0,
        0,
        0.9929563999176025,
        0,
        1
      ],
      "name": "Cube",
      "extras": {
        "name": "Cube"
      },
      "mesh": 0
    },
    {
      "name": "Mesh_1",
      "mesh": 1
    },
    {
      "name": "Mesh_2",
      "mesh": 2
    },
    {
      "matrix": [
        1.957611144019024,
        0,
        -0.22802442699546116,
        0,
        0,
        1.9708466529846191,
        0,
        0,
        0.22802442699546116,
        0,
        1.957611144019024,
        0,
        -0.303506463766098,
        -1.2582647800445557,
        0.42636552453041077,
        1
      ],
      "name": "Plane001",
      "extras": {
        "name": "Plane.001"
      },
      "children": [
        1,
        2
      ]
    },
    {
      "name": "Scene",
      "children": [
        0,
        3
      ]
    }
  ],
  "bufferViews": [
    {
      "buffer": 0,
      "byteOffset": 0,
      "byteLength": 37884,
      "target": 34962,
      "byteStride": 12
    },
    {
      "buffer": 0,
      "byteOffset": 37884,
      "byteLength": 37884,
      "target": 34962,
      "byteStride": 12
    },
    {
      "buffer": 0,
      "byteOffset": 75768,
      "byteLength": 25256,
      "target": 34962,
      "byteStride": 8
    },
    {
      "buffer": 0,
      "byteOffset": 101024,
      "byteLength": 32256,
      "target": 34963
    },
    {
      "buffer": 0,
      "byteOffset": 133280,
      "byteLength": 13128,
      "target": 34962,
      "byteStride": 12
    },
    {
      "buffer": 0,
      "byteOffset": 146408,
      "byteLength": 13128,
      "target": 34962,
      "byteStride": 12
    },
    {
      "buffer": 0,
      "byteOffset": 159536,
      "byteLength": 8752,
      "target": 34962,
      "byteStride": 8
    },
    {
      "buffer": 0,
      "byteOffset": 168288,
      "byteLength": 11088,
      "target": 34963
    },
    {
      "buffer": 0,
      "byteOffset": 179376,
      "byteLength": 6432,
      "target": 34962,
      "byteStride": 12
    },
    {
      "buffer": 0,
      "byteOffset": 185808,
      "byteLength": 6432,
      "target": 34962,
      "byteStride": 12
    },
    {
      "buffer": 0,
      "byteOffset": 192240,
      "byteLength": 4288,
      "target": 34962,
      "byteStride": 8
    },
    {
      "buffer": 0,
      "byteOffset": 196528,
      "byteLength": 5616,
      "target": 34963
    }
  ],
  "buffers": [
    {
      "byteLength": 202144,
      "uri": "data:application/octet-stream;base64,"
    }
  ],
  "accessors": [
    {
      "bufferView": 0,
      "componentType": 5126,
      "count": 3157,
      "max": [
        0.8647795915603638,
        0.9831094741821289,
        1.7085875272750854
      ],
      "min": [
        -0.864779531955719,
        -1.4951047897338867,
        -1.7104344367980957
      ],
      "type": "VEC3"
    },
    {
      "bufferView": 1,
      "componentType": 5126,
      "count": 3157,
      "max": [
        0.9999616742134094,
        1,
        1
      ],
      "min": [
        -0.9999616742134094,
        -1,
        -1
      ],
      "type": "VEC3"
    },
    {
      "bufferView": 2,
      "componentType": 5126,
      "count": 3157,
      "max": [
        1.0000001192092896,
        1
      ],
      "min": [
        0,
        -1.1920928955078125e-7
      ],
      "type": "VEC2"
    },
    {
      "bufferView": 3,
      "componentType": 5123,
      "count": 16128,
      "max": [
        3156
      ],
      "min": [
        0
      ],
      "type": "SCALAR"
    },
    {
      "bufferView": 4,
      "componentType": 5126,
      "count": 1094,
      "max": [
        0.877953290939331,
        0.10297375917434692,
        0.8218744993209839
      ],
      "min": [
        -0.8244466185569763,
        -0.1836802065372467,
        -0.837124228477478
      ],
      "type": "VEC3"
    },
    {
      "bufferView": 5,
      "componentType": 5126,
      "count": 1094,
      "max": [
        0.9985966682434082,
        0.9869819283485413,
        0.9976918697357178
      ],
      "min": [
        -0.995030403137207,
        -1,
        -0.9883254766464233
      ],
      "type": "VEC3"
    },
    {
      "bufferView": 6,
      "componentType": 5126,
      "count": 1094,
      "max": [
        1.0000001192092896,
        1
      ],
      "min": [
        0,
        -0.0000020265579223632812
      ],
      "type": "VEC2"
    },
    {
      "bufferView": 7,
      "componentType": 5123,
      "count": 5544,
      "max": [
        1093
      ],
      "min": [
        0
      ],
      "type": "SCALAR"
    },
    {
      "bufferView": 8,
      "componentType": 5126,
      "count": 536,
      "max": [
        0.3853814899921417,
        0.23422235250473022,
        0.06980990618467331
      ],
      "min": [
        -0.061357591301202774,
        0.10297374427318573,
        -0.37691134214401245
      ],
      "type": "VEC3"
    },
    {
      "bufferView": 9,
      "componentType": 5126,
      "count": 536,
      "max": [
        0.979846179485321,
        1,
        0.9785691499710083
      ],
      "min": [
        -0.9781220555305481,
        0.18828892707824707,
        -0.9794107675552368
      ],
      "type": "VEC3"
    },
    {
      "bufferView": 10,
      "componentType": 5126,
      "count": 536,
      "max": [
        1.0000001192092896,
        0.8888888955116272
      ],
      "min": [
        0.1111111119389534,
        -1.1920928955078125e-7
      ],
      "type": "VEC2"
    },
    {
      "bufferView": 11,
      "componentType": 5123,
      "count": 2808,
      "max": [
        535
      ],
      "min": [
        0
      ],
      "type": "SCALAR"
    }
  ],
  "materials": [
    {
      "pbrMetallicRoughness": {
        "baseColorFactor": [
          0.00392156862745098,
          0.00392156862745098,
          0.00392156862745098,
          1
        ],
        "metallicFactor": 0.8999999761581421,
        "roughnessFactor": 0.20000000298023224
      },
      "doubleSided": true,
      "name": "black.002"
    },
    {
      "pbrMetallicRoughness": {
        "baseColorFactor": [
          0.8,
          0.8,
          0.8,
          1
        ],
        "metallicFactor": 0,
        "roughnessFactor": 0.5
      },
      "emissiveFactor": [
        0.20784313725490197,
        1,
        1
      ],
      "doubleSided": true,
      "name": "emission.001"
    }
  ],
  "meshes": [
    {
      "primitives": [
        {
          "mode": 4,
          "attributes": {
            "POSITION": 0,
            "NORMAL": 1,
            "TEXCOORD_0": 2
          },
          "indices": 3,
          "material": 0
        }
      ]
    },
    {
      "primitives": [
        {
          "mode": 4,
          "attributes": {
            "POSITION": 4,
            "NORMAL": 5,
            "TEXCOORD_0": 6
          },
          "indices": 7,
          "material": 0
        }
      ]
    },
    {
      "primitives": [
        {
          "mode": 4,
          "attributes": {
            "POSITION": 8,
            "NORMAL": 9,
            "TEXCOORD_0": 10
          },
          "indices": 11,
          "material": 1
        }
      ]
    }
  ]
}