{
  "asset": {
    "generator": "Khronos glTF Blender I/O v1.7.33",
    "version": "2.0"
  },
  "scene": 0,
  "scenes": [
    {
      "name": "Scene",
      "nodes": [
        0,
        1,
        2,
        3,
        4,
        5,
        6,
        7,
        8,
        9,
        10,
        11,
        12,
        13,
        14,
        15
      ]
    }
  ],
  "nodes": [
    {
      "mesh": 0,
      "name": "Cylinder.005_RLExtr",
      "rotation": [
        0,
        -0.38268345594406128,
        0,
        0.92387950420379639
      ]
    },
    {
      "mesh": 1,
      "name": "Cylinder.005_RLExtr.001",
      "rotation": [
        0,
        -0.38268345594406128,
        0,
        0.92387950420379639
      ]
    },
    {
      "mesh": 2,
      "name": "Cylinder.002_RLExtr"
    },
    {
      "mesh": 3,
      "name": "Cylinder.002_RLExtr.001"
    },
    {
      "mesh": 4,
      "name": "Cylinder.008_RLExtr"
    },
    {
      "mesh": 5,
      "name": "Cylinder.008_RLExtr.001"
    },
    {
      "mesh": 6,
      "name": "Cylinder.008_RLExtr.002"
    },
    {
      "mesh": 7,
      "name": "Cylinder.005_RLExtr.002",
      "rotation": [
        0,
        -0.38268345594406128,
        0,
        0.92387950420379639
      ]
    },
    {
      "mesh": 8,
      "name": "Cylinder"
    },
    {
      "mesh": 9,
      "name": "Cylinder.002"
    },
    {
      "mesh": 10,
      "name": "Cylinder.003"
    },
    {
      "mesh": 11,
      "name": "Cylinder.004"
    },
    {
      "mesh": 12,
      "name": "Cylinder.005",
      "rotation": [
        0,
        -0.38268345594406128,
        0,
        0.92387950420379639
      ]
    },
    {
      "mesh": 13,
      "name": "Cylinder.006"
    },
    {
      "mesh": 14,
      "name": "Cylinder.007",
      "scale": [
        1.0005111694335938,
        1.0005111694335938,
        1.0005111694335938
      ]
    },
    {
      "mesh": 15,
      "name": "Cylinder.008"
    }
  ],
  "materials": [
    {
      "doubleSided": true,
      "name": "Metal",
      "pbrMetallicRoughness": {}
    },
    {
      "doubleSided": true,
      "emissiveFactor": [
        0.21248907389212945,
        0.32197949640852386,
        1
      ],
      "name": "Material.001",
      "pbrMetallicRoughness": {}
    },
    {
      "doubleSided": true,
      "name": "Material.002",
      "pbrMetallicRoughness": {
        "baseColorFactor": [
          0.800000011920929,
          0.800000011920929,
          0.800000011920929,
          1
        ],
        "metallicFactor": 0,
        "roughnessFactor": 0.5
      }
    },
    {
      "doubleSided": true,
      "name": "Material",
      "pbrMetallicRoughness": {
        "baseColorFactor": [
          0.69006478786468506,
          0.760524570941925,
          0.738450288772583,
          1
        ],
        "metallicFactor": 0,
        "roughnessFactor": 0.5
      }
    },
    {
      "doubleSided": true,
      "name": "Material.003",
      "pbrMetallicRoughness": {
        "baseColorFactor": [
          0.00077372643863782287,
          0.00077372643863782287,
          0.00077372643863782287,
          1
        ],
        "metallicFactor": 0,
        "roughnessFactor": 0.5
      }
    }
  ],
  "meshes": [
    {
      "name": ".temp",
      "primitives": [
        {
          "attributes": {
            "POSITION": 0,
            "NORMAL": 1,
            "TEXCOORD_0": 2
          },
          "indices": 3,
          "material": 0
        }
      ]
    },
    {
      "name": ".temp.002",
      "primitives": [
        {
          "attributes": {
            "POSITION": 4,
            "NORMAL": 5,
            "TEXCOORD_0": 6
          },
          "indices": 7,
          "material": 0
        }
      ]
    },
    {
      "name": ".temp.003",
      "primitives": [
        {
          "attributes": {
            "POSITION": 8,
            "NORMAL": 9,
            "TEXCOORD_0": 10
          },
          "indices": 11,
          "material": 1
        }
      ]
    },
    {
      "name": ".temp.005",
      "primitives": [
        {
          "attributes": {
            "POSITION": 12,
            "NORMAL": 13,
            "TEXCOORD_0": 14
          },
          "indices": 15,
          "material": 0
        }
      ]
    },
    {
      "name": ".temp.001",
      "primitives": [
        {
          "attributes": {
            "POSITION": 16,
            "NORMAL": 17,
            "TEXCOORD_0": 18
          },
          "indices": 19,
          "material": 0
        }
      ]
    },
    {
      "name": ".temp.006",
      "primitives": [
        {
          "attributes": {
            "POSITION": 20,
            "NORMAL": 21,
            "TEXCOORD_0": 22
          },
          "indices": 23,
          "material": 0
        }
      ]
    },
    {
      "name": ".temp.004",
      "primitives": [
        {
          "attributes": {
            "POSITION": 24,
            "NORMAL": 25,
            "TEXCOORD_0": 26
          },
          "indices": 27,
          "material": 2
        }
      ]
    },
    {
      "name": ".temp.008",
      "primitives": [
        {
          "attributes": {
            "POSITION": 28,
            "NORMAL": 29,
            "TEXCOORD_0": 30
          },
          "indices": 31,
          "material": 1
        }
      ]
    },
    {
      "name": "Cylinder",
      "primitives": [
        {
          "attributes": {
            "POSITION": 32,
            "NORMAL": 33,
            "TEXCOORD_0": 34
          },
          "indices": 35,
          "material": 3
        }
      ]
    },
    {
      "name": "Cylinder.003",
      "primitives": [
        {
          "attributes": {
            "POSITION": 36,
            "NORMAL": 37,
            "TEXCOORD_0": 38
          },
          "indices": 39,
          "material": 2
        }
      ]
    },
    {
      "name": "Cylinder.003",
      "primitives": [
        {
          "attributes": {
            "POSITION": 36,
            "NORMAL": 37,
            "TEXCOORD_0": 38
          },
          "indices": 39,
          "material": 4
        }
      ]
    },
    {
      "name": "Cylinder.004",
      "primitives": [
        {
          "attributes": {
            "POSITION": 40,
            "NORMAL": 41,
            "TEXCOORD_0": 42
          },
          "indices": 43,
          "material": 4
        }
      ]
    },
    {
      "name": "Cylinder.006",
      "primitives": [
        {
          "attributes": {
            "POSITION": 44,
            "NORMAL": 45,
            "TEXCOORD_0": 46
          },
          "indices": 47,
          "material": 2
        }
      ]
    },
    {
      "name": "Cylinder.006",
      "primitives": [
        {
          "attributes": {
            "POSITION": 44,
            "NORMAL": 45,
            "TEXCOORD_0": 46
          },
          "indices": 47,
          "material": 4
        }
      ]
    },
    {
      "name": "Cylinder.007",
      "primitives": [
        {
          "attributes": {
            "POSITION": 48,
            "NORMAL": 49,
            "TEXCOORD_0": 50
          },
          "indices": 51,
          "material": 4
        }
      ]
    },
    {
      "name": "Cylinder.001",
      "primitives": [
        {
          "attributes": {
            "POSITION": 52,
            "NORMAL": 53,
            "TEXCOORD_0": 54
          },
          "indices": 55,
          "material": 1
        }
      ]
    }
  ],
  "accessors": [
    {
      "bufferView": 0,
      "componentType": 5126,
      "count": 1218,
      "max": [
        -0.38487407565116882,
        1.1685621738433838,
        0.91138005256652832
      ],
      "min": [
        -0.91183829307556152,
        0.60929298400878906,
        0.38477420806884766
      ],
      "type": "VEC3"
    },
    {
      "bufferView": 1,
      "componentType": 5126,
      "count": 1218,
      "type": "VEC3"
    },
    {
      "bufferView": 2,
      "componentType": 5126,
      "count": 1218,
      "type": "VEC2"
    },
    {
      "bufferView": 3,
      "componentType": 5123,
      "count": 1992,
      "type": "SCALAR"
    },
    {
      "bufferView": 4,
      "componentType": 5126,
      "count": 1476,
      "max": [
        -0.37384170293807983,
        1.1833306550979614,
        0.92043924331665039
      ],
      "min": [
        -0.92633342742919922,
        0.59304356575012207,
        0.36869159340858459
      ],
      "type": "VEC3"
    },
    {
      "bufferView": 5,
      "componentType": 5126,
      "count": 1476,
      "type": "VEC3"
    },
    {
      "bufferView": 6,
      "componentType": 5126,
      "count": 1476,
      "type": "VEC2"
    },
    {
      "bufferView": 7,
      "componentType": 5123,
      "count": 2340,
      "type": "SCALAR"
    },
    {
      "bufferView": 8,
      "componentType": 5126,
      "count": 1797,
      "max": [
        0.98532724380493164,
        1.0223984718322754,
        0.9548073410987854
      ],
      "min": [
        -0.90881568193435669,
        0.74720746278762817,
        -0.96631741523742676
      ],
      "type": "VEC3"
    },
    {
      "bufferView": 9,
      "componentType": 5126,
      "count": 1797,
      "type": "VEC3"
    },
    {
      "bufferView": 10,
      "componentType": 5126,
      "count": 1797,
      "type": "VEC2"
    },
    {
      "bufferView": 11,
      "componentType": 5123,
      "count": 3273,
      "type": "SCALAR"
    },
    {
      "bufferView": 12,
      "componentType": 5126,
      "count": 2029,
      "max": [
        1.0013583898544312,
        1.0247631072998047,
        0.97014099359512329
      ],
      "min": [
        -0.92096024751663208,
        0.750583827495575,
        -0.98427331447601318
      ],
      "type": "VEC3"
    },
    {
      "bufferView": 13,
      "componentType": 5126,
      "count": 2029,
      "type": "VEC3"
    },
    {
      "bufferView": 14,
      "componentType": 5126,
      "count": 2029,
      "type": "VEC2"
    },
    {
      "bufferView": 15,
      "componentType": 5123,
      "count": 3471,
      "type": "SCALAR"
    },
    {
      "bufferView": 16,
      "componentType": 5126,
      "count": 4464,
      "max": [
        1.493547797203064,
        0.42947220802307129,
        1.4937344789505005
      ],
      "min": [
        -1.4939805269241333,
        0.076335534453392029,
        -1.493733286857605
      ],
      "type": "VEC3"
    },
    {
      "bufferView": 17,
      "componentType": 5126,
      "count": 4464,
      "type": "VEC3"
    },
    {
      "bufferView": 18,
      "componentType": 5126,
      "count": 4464,
      "type": "VEC2"
    },
    {
      "bufferView": 19,
      "componentType": 5123,
      "count": 6912,
      "type": "SCALAR"
    },
    {
      "bufferView": 20,
      "componentType": 5126,
      "count": 4244,
      "max": [
        1.4627199172973633,
        0.44661623239517212,
        1.4700747728347778
      ],
      "min": [
        -1.4807069301605225,
        0.10123895108699799,
        -1.4530447721481323
      ],
      "type": "VEC3"
    },
    {
      "bufferView": 21,
      "componentType": 5126,
      "count": 4244,
      "type": "VEC3"
    },
    {
      "bufferView": 22,
      "componentType": 5126,
      "count": 4244,
      "type": "VEC2"
    },
    {
      "bufferView": 23,
      "componentType": 5123,
      "count": 6576,
      "type": "SCALAR"
    },
    {
      "bufferView": 24,
      "componentType": 5126,
      "count": 1179,
      "max": [
        1.3458125591278076,
        0.430396169424057,
        1.4930204153060913
      ],
      "min": [
        -1.492637038230896,
        0.076335534453392029,
        -1.4651427268981934
      ],
      "type": "VEC3"
    },
    {
      "bufferView": 25,
      "componentType": 5126,
      "count": 1179,
      "type": "VEC3"
    },
    {
      "bufferView": 26,
      "componentType": 5126,
      "count": 1179,
      "type": "VEC2"
    },
    {
      "bufferView": 27,
      "componentType": 5123,
      "count": 1779,
      "type": "SCALAR"
    },
    {
      "bufferView": 28,
      "componentType": 5126,
      "count": 324,
      "max": [
        -0.39673048257827759,
        1.1678534746170044,
        0.90303564071655273
      ],
      "min": [
        -0.90544211864471436,
        0.61018127202987671,
        0.40565222501754761
      ],
      "type": "VEC3"
    },
    {
      "bufferView": 29,
      "componentType": 5126,
      "count": 324,
      "type": "VEC3"
    },
    {
      "bufferView": 30,
      "componentType": 5126,
      "count": 324,
      "type": "VEC2"
    },
    {
      "bufferView": 31,
      "componentType": 5123,
      "count": 510,
      "type": "SCALAR"
    },
    {
      "bufferView": 32,
      "componentType": 5126,
      "count": 7194,
      "max": [
        1.5495980978012085,
        1.3347262144088745,
        1.5495980978012085
      ],
      "min": [
        -1.5495980978012085,
        0.0090224295854568481,
        -1.5495980978012085
      ],
      "type": "VEC3"
    },
    {
      "bufferView": 33,
      "componentType": 5126,
      "count": 7194,
      "type": "VEC3"
    },
    {
      "bufferView": 34,
      "componentType": 5126,
      "count": 7194,
      "type": "VEC2"
    },
    {
      "bufferView": 35,
      "componentType": 5123,
      "count": 10884,
      "type": "SCALAR"
    },
    {
      "bufferView": 36,
      "componentType": 5126,
      "count": 4096,
      "max": [
        0.9629320502281189,
        1.0183727741241455,
        0.96293020248413086
      ],
      "min": [
        -0.96293097734451294,
        0.74720746278762817,
        -0.96293133497238159
      ],
      "type": "VEC3"
    },
    {
      "bufferView": 37,
      "componentType": 5126,
      "count": 4096,
      "type": "VEC3"
    },
    {
      "bufferView": 38,
      "componentType": 5126,
      "count": 4096,
      "type": "VEC2"
    },
    {
      "bufferView": 39,
      "componentType": 5123,
      "count": 6144,
      "type": "SCALAR"
    },
    {
      "bufferView": 40,
      "componentType": 5126,
      "count": 832,
      "max": [
        0.87680715322494507,
        1.2306276559829712,
        0.87680697441101074
      ],
      "min": [
        -0.87680685520172119,
        1.2246274948120117,
        -0.876806914806366
      ],
      "type": "VEC3"
    },
    {
      "bufferView": 41,
      "componentType": 5126,
      "count": 832,
      "type": "VEC3"
    },
    {
      "bufferView": 42,
      "componentType": 5126,
      "count": 832,
      "type": "VEC2"
    },
    {
      "bufferView": 43,
      "componentType": 5123,
      "count": 2304,
      "type": "SCALAR"
    },
    {
      "bufferView": 44,
      "componentType": 5126,
      "count": 1052,
      "max": [
        -0.398487389087677,
        1.1463462114334106,
        0.89481854438781738
      ],
      "min": [
        -0.89481860399246216,
        0.63130080699920654,
        0.39848750829696655
      ],
      "type": "VEC3"
    },
    {
      "bufferView": 45,
      "componentType": 5126,
      "count": 1052,
      "type": "VEC3"
    },
    {
      "bufferView": 46,
      "componentType": 5126,
      "count": 1052,
      "type": "VEC2"
    },
    {
      "bufferView": 47,
      "componentType": 5123,
      "count": 1584,
      "type": "SCALAR"
    },
    {
      "bufferView": 48,
      "componentType": 5126,
      "count": 7920,
      "max": [
        1.537898063659668,
        0.42331671714782715,
        1.5379084348678589
      ],
      "min": [
        -1.5379084348678589,
        0.018924092873930931,
        -1.5379084348678589
      ],
      "type": "VEC3"
    },
    {
      "bufferView": 49,
      "componentType": 5126,
      "count": 7920,
      "type": "VEC3"
    },
    {
      "bufferView": 50,
      "componentType": 5126,
      "count": 7920,
      "type": "VEC2"
    },
    {
      "bufferView": 51,
      "componentType": 5123,
      "count": 11880,
      "type": "SCALAR"
    },
    {
      "bufferView": 52,
      "componentType": 5126,
      "count": 1584,
      "max": [
        1.4792288541793823,
        0.41209638118743896,
        1.4794760942459106
      ],
      "min": [
        -1.4797221422195435,
        0.076335534453392029,
        -1.4794749021530151
      ],
      "type": "VEC3"
    },
    {
      "bufferView": 53,
      "componentType": 5126,
      "count": 1584,
      "type": "VEC3"
    },
    {
      "bufferView": 54,
      "componentType": 5126,
      "count": 1584,
      "type": "VEC2"
    },
    {
      "bufferView": 55,
      "componentType": 5123,
      "count": 2376,
      "type": "SCALAR"
    }
  ],
  "bufferViews": [
    {
      "buffer": 0,
      "byteLength": 14616,
      "byteOffset": 0
    },
    {
      "buffer": 0,
      "byteLength": 14616,
      "byteOffset": 14616
    },
    {
      "buffer": 0,
      "byteLength": 9744,
      "byteOffset": 29232
    },
    {
      "buffer": 0,
      "byteLength": 3984,
      "byteOffset": 38976
    },
    {
      "buffer": 0,
      "byteLength": 17712,
      "byteOffset": 42960
    },
    {
      "buffer": 0,
      "byteLength": 17712,
      "byteOffset": 60672
    },
    {
      "buffer": 0,
      "byteLength": 11808,
      "byteOffset": 78384
    },
    {
      "buffer": 0,
      "byteLength": 4680,
      "byteOffset": 90192
    },
    {
      "buffer": 0,
      "byteLength": 21564,
      "byteOffset": 94872
    },
    {
      "buffer": 0,
      "byteLength": 21564,
      "byteOffset": 116436
    },
    {
      "buffer": 0,
      "byteLength": 14376,
      "byteOffset": 138000
    },
    {
      "buffer": 0,
      "byteLength": 6546,
      "byteOffset": 152376
    },
    {
      "buffer": 0,
      "byteLength": 24348,
      "byteOffset": 158924
    },
    {
      "buffer": 0,
      "byteLength": 24348,
      "byteOffset": 183272
    },
    {
      "buffer": 0,
      "byteLength": 16232,
      "byteOffset": 207620
    },
    {
      "buffer": 0,
      "byteLength": 6942,
      "byteOffset": 223852
    },
    {
      "buffer": 0,
      "byteLength": 53568,
      "byteOffset": 230796
    },
    {
      "buffer": 0,
      "byteLength": 53568,
      "byteOffset": 284364
    },
    {
      "buffer": 0,
      "byteLength": 35712,
      "byteOffset": 337932
    },
    {
      "buffer": 0,
      "byteLength": 13824,
      "byteOffset": 373644
    },
    {
      "buffer": 0,
      "byteLength": 50928,
      "byteOffset": 387468
    },
    {
      "buffer": 0,
      "byteLength": 50928,
      "byteOffset": 438396
    },
    {
      "buffer": 0,
      "byteLength": 33952,
      "byteOffset": 489324
    },
    {
      "buffer": 0,
      "byteLength": 13152,
      "byteOffset": 523276
    },
    {
      "buffer": 0,
      "byteLength": 14148,
      "byteOffset": 536428
    },
    {
      "buffer": 0,
      "byteLength": 14148,
      "byteOffset": 550576
    },
    {
      "buffer": 0,
      "byteLength": 9432,
      "byteOffset": 564724
    },
    {
      "buffer": 0,
      "byteLength": 3558,
      "byteOffset": 574156
    },
    {
      "buffer": 0,
      "byteLength": 3888,
      "byteOffset": 577716
    },
    {
      "buffer": 0,
      "byteLength": 3888,
      "byteOffset": 581604
    },
    {
      "buffer": 0,
      "byteLength": 2592,
      "byteOffset": 585492
    },
    {
      "buffer": 0,
      "byteLength": 1020,
      "byteOffset": 588084
    },
    {
      "buffer": 0,
      "byteLength": 86328,
      "byteOffset": 589104
    },
    {
      "buffer": 0,
      "byteLength": 86328,
      "byteOffset": 675432
    },
    {
      "buffer": 0,
      "byteLength": 57552,
      "byteOffset": 761760
    },
    {
      "buffer": 0,
      "byteLength": 21768,
      "byteOffset": 819312
    },
    {
      "buffer": 0,
      "byteLength": 49152,
      "byteOffset": 841080
    },
    {
      "buffer": 0,
      "byteLength": 49152,
      "byteOffset": 890232
    },
    {
      "buffer": 0,
      "byteLength": 32768,
      "byteOffset": 939384
    },
    {
      "buffer": 0,
      "byteLength": 12288,
      "byteOffset": 972152
    },
    {
      "buffer": 0,
      "byteLength": 9984,
      "byteOffset": 984440
    },
    {
      "buffer": 0,
      "byteLength": 9984,
      "byteOffset": 994424
    },
    {
      "buffer": 0,
      "byteLength": 6656,
      "byteOffset": 1004408
    },
    {
      "buffer": 0,
      "byteLength": 4608,
      "byteOffset": 1011064
    },
    {
      "buffer": 0,
      "byteLength": 12624,
      "byteOffset": 1015672
    },
    {
      "buffer": 0,
      "byteLength": 12624,
      "byteOffset": 1028296
    },
    {
      "buffer": 0,
      "byteLength": 8416,
      "byteOffset": 1040920
    },
    {
      "buffer": 0,
      "byteLength": 3168,
      "byteOffset": 1049336
    },
    {
      "buffer": 0,
      "byteLength": 95040,
      "byteOffset": 1052504
    },
    {
      "buffer": 0,
      "byteLength": 95040,
      "byteOffset": 1147544
    },
    {
      "buffer": 0,
      "byteLength": 63360,
      "byteOffset": 1242584
    },
    {
      "buffer": 0,
      "byteLength": 23760,
      "byteOffset": 1305944
    },
    {
      "buffer": 0,
      "byteLength": 19008,
      "byteOffset": 1329704
    },
    {
      "buffer": 0,
      "byteLength": 19008,
      "byteOffset": 1348712
    },
    {
      "buffer": 0,
      "byteLength": 12672,
      "byteOffset": 1367720
    },
    {
      "buffer": 0,
      "byteLength": 4752,
      "byteOffset": 1380392
    }
  ],
  "buffers": [
    {
      "byteLength": 1385144,
      "uri": "01_Hat_AR.bin"
    }
  ]
}