{
  "asset": {
    "version": "2.0",
    "generator": "THREE.GLTFExporter"
  },
  "scenes": [
    {
      "nodes": [
        3
      ]
    }
  ],
  "scene": 0,
  "nodes": [
    {
      "name": "Cylinder_1",
      "mesh": 0
    },
    {
      "name": "Cylinder_2",
      "mesh": 1
    },
    {
      "name": "Cylinder_3",
      "mesh": 2
    },
    {
      "matrix": [
        0.14725141965801797,
        3.618561966771346e-8,
        -0.12825869175257076,
        0,
        -3.568678792859406e-8,
        -0.19258546977991234,
        -9.530546882612282e-8,
        0,
        -0.1282586999829459,
        9.663765150054697e-8,
        -0.1472514291071313,
        0,
        -1.2904824018478394,
        -1.1924505233764648,
        -1.6268770694732666,
        1
      ],
      "name": "Cylinder",
      "extras": {
        "name": "Cylinder"
      },
      "children": [
        0,
        1,
        2
      ]
    }
  ],
  "bufferViews": [
    {
      "buffer": 0,
      "byteOffset": 0,
      "byteLength": 272256,
      "target": 34962,
      "byteStride": 12
    },
    {
      "buffer": 0,
      "byteOffset": 272256,
      "byteLength": 272256,
      "target": 34962,
      "byteStride": 12
    },
    {
      "buffer": 0,
      "byteOffset": 544512,
      "byteLength": 181504,
      "target": 34962,
      "byteStride": 8
    },
    {
      "buffer": 0,
      "byteOffset": 726016,
      "byteLength": 236544,
      "target": 34963
    },
    {
      "buffer": 0,
      "byteOffset": 962560,
      "byteLength": 35496,
      "target": 34962,
      "byteStride": 12
    },
    {
      "buffer": 0,
      "byteOffset": 998056,
      "byteLength": 35496,
      "target": 34962,
      "byteStride": 12
    },
    {
      "buffer": 0,
      "byteOffset": 1033552,
      "byteLength": 23664,
      "target": 34962,
      "byteStride": 8
    },
    {
      "buffer": 0,
      "byteOffset": 1057216,
      "byteLength": 27264,
      "target": 34963
    },
    {
      "buffer": 0,
      "byteOffset": 1084480,
      "byteLength": 24984,
      "target": 34962,
      "byteStride": 12
    },
    {
      "buffer": 0,
      "byteOffset": 1109464,
      "byteLength": 24984,
      "target": 34962,
      "byteStride": 12
    },
    {
      "buffer": 0,
      "byteOffset": 1134448,
      "byteLength": 16656,
      "target": 34962,
      "byteStride": 8
    },
    {
      "buffer": 0,
      "byteOffset": 1151104,
      "byteLength": 22272,
      "target": 34963
    }
  ],
  "buffers": [
    {
      "byteLength": 1173376,
      "uri": "data:application/octet-stream;base64,"
    }
  ],
  "accessors": [
    {
      "bufferView": 0,
      "componentType": 5126,
      "count": 22688,
      "max": [
        10.434225082397461,
        2.3524396419525146,
        1.991746187210083
      ],
      "min": [
        -10.434225082397461,
        -7.258778095245361,
        -23.293338775634766
      ],
      "type": "VEC3"
    },
    {
      "bufferView": 1,
      "componentType": 5126,
      "count": 22688,
      "max": [
        0.99996417760849,
        1,
        0.9999942183494568
      ],
      "min": [
        -0.99996417760849,
        -0.999999463558197,
        -0.999929666519165
      ],
      "type": "VEC3"
    },
    {
      "bufferView": 2,
      "componentType": 5126,
      "count": 22688,
      "max": [
        1.000000238418579,
        1
      ],
      "min": [
        -0.000077807781053707,
        -2.384185791015625e-7
      ],
      "type": "VEC2"
    },
    {
      "bufferView": 3,
      "componentType": 5123,
      "count": 118272,
      "max": [
        22687
      ],
      "min": [
        0
      ],
      "type": "SCALAR"
    },
    {
      "bufferView": 4,
      "componentType": 5126,
      "count": 2958,
      "max": [
        10.346813201904297,
        1.792104959487915,
        1.85793936252594
      ],
      "min": [
        -10.346813201904297,
        -3.6819100379943848,
        -22.97637367248535
      ],
      "type": "VEC3"
    },
    {
      "bufferView": 5,
      "componentType": 5126,
      "count": 2958,
      "max": [
        0.9999134540557861,
        0.9663230180740356,
        0.9999132752418518
      ],
      "min": [
        -0.9999134540557861,
        -0.9610573649406433,
        -0.9996164441108704
      ],
      "type": "VEC3"
    },
    {
      "bufferView": 6,
      "componentType": 5126,
      "count": 2958,
      "max": [
        1.0000001192092896,
        1
      ],
      "min": [
        0,
        -1.1920928955078125e-7
      ],
      "type": "VEC2"
    },
    {
      "bufferView": 7,
      "componentType": 5123,
      "count": 13632,
      "max": [
        2957
      ],
      "min": [
        0
      ],
      "type": "SCALAR"
    },
    {
      "bufferView": 8,
      "componentType": 5126,
      "count": 2082,
      "max": [
        9.37852954864502,
        -7.154606819152832,
        -1.0316212177276611
      ],
      "min": [
        -9.37852954864502,
        -7.314107894897461,
        -7.025754451751709
      ],
      "type": "VEC3"
    },
    {
      "bufferView": 9,
      "componentType": 5126,
      "count": 2082,
      "max": [
        1,
        0.9834476113319397,
        1
      ],
      "min": [
        -1,
        -0.999995768070221,
        -1
      ],
      "type": "VEC3"
    },
    {
      "bufferView": 10,
      "componentType": 5126,
      "count": 2082,
      "max": [
        0.7500001192092896,
        1
      ],
      "min": [
        0,
        -1.1920928955078125e-7
      ],
      "type": "VEC2"
    },
    {
      "bufferView": 11,
      "componentType": 5123,
      "count": 11136,
      "max": [
        2081
      ],
      "min": [
        0
      ],
      "type": "SCALAR"
    }
  ],
  "materials": [
    {
      "pbrMetallicRoughness": {
        "baseColorFactor": [
          0.00392156862745098,
          0.00392156862745098,
          0.00392156862745098,
          1
        ],
        "metallicFactor": 0.8999999761581421,
        "roughnessFactor": 0.20000000298023224
      },
      "doubleSided": true,
      "name": "black"
    },
    {
      "pbrMetallicRoughness": {
        "baseColorFactor": [
          0.8,
          0.8,
          0.8,
          1
        ],
        "metallicFactor": 0,
        "roughnessFactor": 0.4000000059604645
      },
      "emissiveFactor": [
        1,
        0,
        0.7058823529411765
      ],
      "doubleSided": true,
      "name": "Material.001"
    },
    {
      "pbrMetallicRoughness": {
        "baseColorFactor": [
          0.8,
          0.8,
          0.8,
          1
        ],
        "metallicFactor": 0.8999999761581421,
        "roughnessFactor": 0.20000000298023224
      },
      "doubleSided": true,
      "name": "grey"
    }
  ],
  "meshes": [
    {
      "primitives": [
        {
          "mode": 4,
          "attributes": {
            "POSITION": 0,
            "NORMAL": 1,
            "TEXCOORD_0": 2
          },
          "indices": 3,
          "material": 0
        }
      ]
    },
    {
      "primitives": [
        {
          "mode": 4,
          "attributes": {
            "POSITION": 4,
            "NORMAL": 5,
            "TEXCOORD_0": 6
          },
          "indices": 7,
          "material": 1
        }
      ]
    },
    {
      "primitives": [
        {
          "mode": 4,
          "attributes": {
            "POSITION": 8,
            "NORMAL": 9,
            "TEXCOORD_0": 10
          },
          "indices": 11,
          "material": 2
        }
      ]
    }
  ]
}