{
  "asset": {
    "version": "2.0",
    "generator": "THREE.GLTFExporter"
  },
  "scenes": [
    {
      "name": "AuxScene",
      "nodes": [
        9
      ]
    }
  ],
  "scene": 0,
  "nodes": [
    {
      "name": "Plane_1",
      "mesh": 0
    },
    {
      "name": "Plane_2",
      "mesh": 1
    },
    {
      "name": "Plane_3",
      "mesh": 2
    },
    {
      "name": "Plane_4",
      "mesh": 3
    },
    {
      "matrix": [
        0.43905067627468264,
        0,
        -0.2610336118853728,
        0,
        0,
        0.5107876658439636,
        0,
        0,
        0.2610336118853728,
        0,
        0.43905067627468264,
        0,
        -0.8293947577476501,
        -1.3146166801452637,
        -1.8850798606872559,
        1
      ],
      "name": "Plane",
      "extras": {
        "name": "Plane"
      },
      "children": [
        0,
        1,
        2,
        3
      ]
    },
    {
      "matrix": [
        0.0435333170713394,
        0,
        -0.02588234025489453,
        0,
        0,
        0.05064627528190613,
        0,
        0,
        0.02588234025489453,
        0,
        0.0435333170713394,
        0,
        2.581127166748047,
        -0.8501703143119812,
        0.7341551780700684,
        1
      ],
      "name": "Sphere003",
      "extras": {
        "name": "Sphere.003"
      },
      "mesh": 4
    },
    {
      "matrix": [
        0.0435333170713394,
        0,
        -0.02588234025489453,
        0,
        0,
        0.05064627528190613,
        0,
        0,
        0.02588234025489453,
        0,
        0.0435333170713394,
        0,
        1.7169703245162964,
        -0.8423274755477905,
        1.2775688171386719,
        1
      ],
      "name": "Sphere001",
      "extras": {
        "name": "Sphere.001"
      },
      "mesh": 5
    },
    {
      "matrix": [
        0.0435333170713394,
        0,
        -0.02588234025489453,
        0,
        0,
        0.05064627528190613,
        0,
        0,
        0.02588234025489453,
        0,
        0.0435333170713394,
        0,
        0.6901677846908569,
        -0.8501703143119812,
        1.892552137374878,
        1
      ],
      "name": "Sphere002",
      "extras": {
        "name": "Sphere.002"
      },
      "mesh": 6
    },
    {
      "matrix": [
        0.0435333170713394,
        0,
        -0.02588234025489453,
        0,
        0,
        0.05064627528190613,
        0,
        0,
        0.02588234025489453,
        0,
        0.0435333170713394,
        0,
        -0.17398905754089355,
        -0.8423274755477905,
        2.4359657764434814,
        1
      ],
      "name": "Sphere004",
      "extras": {
        "name": "Sphere.004"
      },
      "mesh": 7
    },
    {
      "name": "Scene",
      "children": [
        4,
        5,
        6,
        7,
        8
      ]
    }
  ],
  "bufferViews": [
    {
      "buffer": 0,
      "byteOffset": 0,
      "byteLength": 70404,
      "target": 34962,
      "byteStride": 12
    },
    {
      "buffer": 0,
      "byteOffset": 70404,
      "byteLength": 70404,
      "target": 34962,
      "byteStride": 12
    },
    {
      "buffer": 0,
      "byteOffset": 140808,
      "byteLength": 46936,
      "target": 34962,
      "byteStride": 8
    },
    {
      "buffer": 0,
      "byteOffset": 187744,
      "byteLength": 62208,
      "target": 34963
    },
    {
      "buffer": 0,
      "byteOffset": 249952,
      "byteLength": 19392,
      "target": 34962,
      "byteStride": 12
    },
    {
      "buffer": 0,
      "byteOffset": 269344,
      "byteLength": 19392,
      "target": 34962,
      "byteStride": 12
    },
    {
      "buffer": 0,
      "byteOffset": 288736,
      "byteLength": 12928,
      "target": 34962,
      "byteStride": 8
    },
    {
      "buffer": 0,
      "byteOffset": 301664,
      "byteLength": 17664,
      "target": 34963
    },
    {
      "buffer": 0,
      "byteOffset": 319328,
      "byteLength": 39912,
      "target": 34962,
      "byteStride": 12
    },
    {
      "buffer": 0,
      "byteOffset": 359240,
      "byteLength": 39912,
      "target": 34962,
      "byteStride": 12
    },
    {
      "buffer": 0,
      "byteOffset": 399152,
      "byteLength": 26608,
      "target": 34962,
      "byteStride": 8
    },
    {
      "buffer": 0,
      "byteOffset": 425760,
      "byteLength": 36576,
      "target": 34963
    },
    {
      "buffer": 0,
      "byteOffset": 462336,
      "byteLength": 7284,
      "target": 34962,
      "byteStride": 12
    },
    {
      "buffer": 0,
      "byteOffset": 469620,
      "byteLength": 7284,
      "target": 34962,
      "byteStride": 12
    },
    {
      "buffer": 0,
      "byteOffset": 476904,
      "byteLength": 4856,
      "target": 34962,
      "byteStride": 8
    },
    {
      "buffer": 0,
      "byteOffset": 481760,
      "byteLength": 5952,
      "target": 34963
    },
    {
      "buffer": 0,
      "byteOffset": 487712,
      "byteLength": 23808,
      "target": 34962,
      "byteStride": 12
    },
    {
      "buffer": 0,
      "byteOffset": 511520,
      "byteLength": 23808,
      "target": 34962,
      "byteStride": 12
    },
    {
      "buffer": 0,
      "byteOffset": 535328,
      "byteLength": 15872,
      "target": 34962,
      "byteStride": 8
    },
    {
      "buffer": 0,
      "byteOffset": 551200,
      "byteLength": 5760,
      "target": 34963
    },
    {
      "buffer": 0,
      "byteOffset": 556960,
      "byteLength": 23808,
      "target": 34962,
      "byteStride": 12
    },
    {
      "buffer": 0,
      "byteOffset": 580768,
      "byteLength": 23808,
      "target": 34962,
      "byteStride": 12
    },
    {
      "buffer": 0,
      "byteOffset": 604576,
      "byteLength": 15872,
      "target": 34962,
      "byteStride": 8
    },
    {
      "buffer": 0,
      "byteOffset": 620448,
      "byteLength": 5760,
      "target": 34963
    },
    {
      "buffer": 0,
      "byteOffset": 626208,
      "byteLength": 23808,
      "target": 34962,
      "byteStride": 12
    },
    {
      "buffer": 0,
      "byteOffset": 650016,
      "byteLength": 23808,
      "target": 34962,
      "byteStride": 12
    },
    {
      "buffer": 0,
      "byteOffset": 673824,
      "byteLength": 15872,
      "target": 34962,
      "byteStride": 8
    },
    {
      "buffer": 0,
      "byteOffset": 689696,
      "byteLength": 5760,
      "target": 34963
    },
    {
      "buffer": 0,
      "byteOffset": 695456,
      "byteLength": 23808,
      "target": 34962,
      "byteStride": 12
    },
    {
      "buffer": 0,
      "byteOffset": 719264,
      "byteLength": 23808,
      "target": 34962,
      "byteStride": 12
    },
    {
      "buffer": 0,
      "byteOffset": 743072,
      "byteLength": 15872,
      "target": 34962,
      "byteStride": 8
    },
    {
      "buffer": 0,
      "byteOffset": 758944,
      "byteLength": 5760,
      "target": 34963
    }
  ],
  "buffers": [
    {
      "byteLength": 764704,
      "uri": "data:application/octet-stream;base64,"
    }
  ],
  "accessors": [
    {
      "bufferView": 0,
      "componentType": 5126,
      "count": 5867,
      "max": [
        4.029234886169434,
        0.6847101449966431,
        8.617117881774902
      ],
      "min": [
        -4.029234409332275,
        -0.6068885922431946,
        -1.0558571815490723
      ],
      "type": "VEC3"
    },
    {
      "bufferView": 1,
      "componentType": 5126,
      "count": 5867,
      "max": [
        0.9974566698074341,
        1,
        0.9988384246826172
      ],
      "min": [
        -0.9974566698074341,
        -1,
        -0.9999749660491943
      ],
      "type": "VEC3"
    },
    {
      "bufferView": 2,
      "componentType": 5126,
      "count": 5867,
      "max": [
        1.0000001192092896,
        1
      ],
      "min": [
        0,
        -1.1920928955078125e-7
      ],
      "type": "VEC2"
    },
    {
      "bufferView": 3,
      "componentType": 5123,
      "count": 31104,
      "max": [
        5866
      ],
      "min": [
        0
      ],
      "type": "SCALAR"
    },
    {
      "bufferView": 4,
      "componentType": 5126,
      "count": 1616,
      "max": [
        3.6478681564331055,
        -0.18754538893699646,
        6.134491920471191
      ],
      "min": [
        -3.6478679180145264,
        -0.41934314370155334,
        1.1708768606185913
      ],
      "type": "VEC3"
    },
    {
      "bufferView": 5,
      "componentType": 5126,
      "count": 1616,
      "max": [
        0.9999997615814209,
        1,
        0.8309921622276306
      ],
      "min": [
        -0.9999997615814209,
        -1,
        -0.8705098032951355
      ],
      "type": "VEC3"
    },
    {
      "bufferView": 6,
      "componentType": 5126,
      "count": 1616,
      "max": [
        0.9895835518836975,
        1
      ],
      "min": [
        0.010416666977107525,
        1
      ],
      "type": "VEC2"
    },
    {
      "bufferView": 7,
      "componentType": 5123,
      "count": 8832,
      "max": [
        1615
      ],
      "min": [
        0
      ],
      "type": "SCALAR"
    },
    {
      "bufferView": 8,
      "componentType": 5126,
      "count": 3326,
      "max": [
        3.8840086460113525,
        3.045602321624756,
        8.432382583618164
      ],
      "min": [
        -3.8840084075927734,
        0.2975958585739136,
        -0.9130387902259827
      ],
      "type": "VEC3"
    },
    {
      "bufferView": 9,
      "componentType": 5126,
      "count": 3326,
      "max": [
        0.9999310374259949,
        1,
        0.9994518160820007
      ],
      "min": [
        -0.9999310374259949,
        -0.9832890629768372,
        -0.99855637550354
      ],
      "type": "VEC3"
    },
    {
      "bufferView": 10,
      "componentType": 5126,
      "count": 3326,
      "max": [
        1.000000238418579,
        1
      ],
      "min": [
        0,
        -1.1920928955078125e-7
      ],
      "type": "VEC2"
    },
    {
      "bufferView": 11,
      "componentType": 5123,
      "count": 18288,
      "max": [
        3325
      ],
      "min": [
        0
      ],
      "type": "SCALAR"
    },
    {
      "bufferView": 12,
      "componentType": 5126,
      "count": 607,
      "max": [
        3.9646048545837402,
        2.8547415733337402,
        1.3559421300888062
      ],
      "min": [
        -3.9646048545837402,
        1.2036226987838745,
        -1.217360019683838
      ],
      "type": "VEC3"
    },
    {
      "bufferView": 13,
      "componentType": 5126,
      "count": 607,
      "max": [
        0.9994221329689026,
        0.5531181693077087,
        0.9993141889572144
      ],
      "min": [
        -0.9994221329689026,
        -0.23189222812652588,
        -0.16469669342041016
      ],
      "type": "VEC3"
    },
    {
      "bufferView": 14,
      "componentType": 5126,
      "count": 607,
      "max": [
        1.000000238418579,
        1
      ],
      "min": [
        0,
        -1.1920928955078125e-7
      ],
      "type": "VEC2"
    },
    {
      "bufferView": 15,
      "componentType": 5123,
      "count": 2976,
      "max": [
        606
      ],
      "min": [
        0
      ],
      "type": "SCALAR"
    },
    {
      "bufferView": 16,
      "componentType": 5126,
      "count": 1984,
      "max": [
        0.9999997019767761,
        1,
        0.9999994039535522
      ],
      "min": [
        -0.9999990463256836,
        -1,
        -0.9999987483024597
      ],
      "type": "VEC3"
    },
    {
      "bufferView": 17,
      "componentType": 5126,
      "count": 1984,
      "max": [
        0.9904384613037109,
        0.9951385855674744,
        0.9904384613037109
      ],
      "min": [
        -0.9904386401176453,
        -0.9951385259628296,
        -0.9904389381408691
      ],
      "type": "VEC3"
    },
    {
      "bufferView": 18,
      "componentType": 5126,
      "count": 1984,
      "max": [
        1.0000001192092896,
        1
      ],
      "min": [
        0,
        0
      ],
      "type": "VEC2"
    },
    {
      "bufferView": 19,
      "componentType": 5123,
      "count": 2880,
      "max": [
        1983
      ],
      "min": [
        0
      ],
      "type": "SCALAR"
    },
    {
      "bufferView": 20,
      "componentType": 5126,
      "count": 1984,
      "max": [
        0.9999997019767761,
        1,
        0.9999994039535522
      ],
      "min": [
        -0.9999990463256836,
        -1,
        -0.9999987483024597
      ],
      "type": "VEC3"
    },
    {
      "bufferView": 21,
      "componentType": 5126,
      "count": 1984,
      "max": [
        0.9904384613037109,
        0.9951385855674744,
        0.9904384613037109
      ],
      "min": [
        -0.9904386401176453,
        -0.9951385259628296,
        -0.9904389381408691
      ],
      "type": "VEC3"
    },
    {
      "bufferView": 22,
      "componentType": 5126,
      "count": 1984,
      "max": [
        1.0000001192092896,
        1
      ],
      "min": [
        0,
        0
      ],
      "type": "VEC2"
    },
    {
      "bufferView": 23,
      "componentType": 5123,
      "count": 2880,
      "max": [
        1983
      ],
      "min": [
        0
      ],
      "type": "SCALAR"
    },
    {
      "bufferView": 24,
      "componentType": 5126,
      "count": 1984,
      "max": [
        0.9999997019767761,
        1,
        0.9999994039535522
      ],
      "min": [
        -0.9999990463256836,
        -1,
        -0.9999987483024597
      ],
      "type": "VEC3"
    },
    {
      "bufferView": 25,
      "componentType": 5126,
      "count": 1984,
      "max": [
        0.9904384613037109,
        0.9951385855674744,
        0.9904384613037109
      ],
      "min": [
        -0.9904386401176453,
        -0.9951385259628296,
        -0.9904389381408691
      ],
      "type": "VEC3"
    },
    {
      "bufferView": 26,
      "componentType": 5126,
      "count": 1984,
      "max": [
        1.0000001192092896,
        1
      ],
      "min": [
        0,
        0
      ],
      "type": "VEC2"
    },
    {
      "bufferView": 27,
      "componentType": 5123,
      "count": 2880,
      "max": [
        1983
      ],
      "min": [
        0
      ],
      "type": "SCALAR"
    },
    {
      "bufferView": 28,
      "componentType": 5126,
      "count": 1984,
      "max": [
        0.9999997019767761,
        1,
        0.9999994039535522
      ],
      "min": [
        -0.9999990463256836,
        -1,
        -0.9999987483024597
      ],
      "type": "VEC3"
    },
    {
      "bufferView": 29,
      "componentType": 5126,
      "count": 1984,
      "max": [
        0.9904384613037109,
        0.9951385855674744,
        0.9904384613037109
      ],
      "min": [
        -0.9904386401176453,
        -0.9951385259628296,
        -0.9904389381408691
      ],
      "type": "VEC3"
    },
    {
      "bufferView": 30,
      "componentType": 5126,
      "count": 1984,
      "max": [
        1.0000001192092896,
        1
      ],
      "min": [
        0,
        0
      ],
      "type": "VEC2"
    },
    {
      "bufferView": 31,
      "componentType": 5123,
      "count": 2880,
      "max": [
        1983
      ],
      "min": [
        0
      ],
      "type": "SCALAR"
    }
  ],
  "materials": [
    {
      "pbrMetallicRoughness": {
        "baseColorFactor": [
          0.00392156862745098,
          0.00392156862745098,
          0.00392156862745098,
          1
        ],
        "metallicFactor": 0.8999999761581421,
        "roughnessFactor": 0.20000000298023224
      },
      "doubleSided": true,
      "name": "black.001"
    },
    {
      "pbrMetallicRoughness": {
        "baseColorFactor": [
          0.8,
          0.8,
          0.8,
          1
        ],
        "metallicFactor": 0,
        "roughnessFactor": 0.5
      },
      "emissiveFactor": [
        1,
        1,
        1
      ],
      "doubleSided": true,
      "name": "emission"
    },
    {
      "pbrMetallicRoughness": {
        "baseColorFactor": [
          0.5686274509803921,
          0.023529411764705882,
          0.023529411764705882,
          1
        ],
        "metallicFactor": 1,
        "roughnessFactor": 0.2899082601070404
      },
      "doubleSided": true,
      "name": "red"
    },
    {
      "pbrMetallicRoughness": {
        "baseColorFactor": [
          1,
          0.6313725490196078,
          0,
          1
        ],
        "metallicFactor": 0.8073394298553467,
        "roughnessFactor": 0.21559631824493408
      },
      "doubleSided": true,
      "name": "gold"
    }
  ],
  "meshes": [
    {
      "primitives": [
        {
          "mode": 4,
          "attributes": {
            "POSITION": 0,
            "NORMAL": 1,
            "TEXCOORD_0": 2
          },
          "indices": 3,
          "material": 0
        }
      ]
    },
    {
      "primitives": [
        {
          "mode": 4,
          "attributes": {
            "POSITION": 4,
            "NORMAL": 5,
            "TEXCOORD_0": 6
          },
          "indices": 7,
          "material": 1
        }
      ]
    },
    {
      "primitives": [
        {
          "mode": 4,
          "attributes": {
            "POSITION": 8,
            "NORMAL": 9,
            "TEXCOORD_0": 10
          },
          "indices": 11,
          "material": 2
        }
      ]
    },
    {
      "primitives": [
        {
          "mode": 4,
          "attributes": {
            "POSITION": 12,
            "NORMAL": 13,
            "TEXCOORD_0": 14
          },
          "indices": 15,
          "material": 3
        }
      ]
    },
    {
      "primitives": [
        {
          "mode": 4,
          "attributes": {
            "POSITION": 16,
            "NORMAL": 17,
            "TEXCOORD_0": 18
          },
          "indices": 19,
          "material": 1
        }
      ]
    },
    {
      "primitives": [
        {
          "mode": 4,
          "attributes": {
            "POSITION": 20,
            "NORMAL": 21,
            "TEXCOORD_0": 22
          },
          "indices": 23,
          "material": 1
        }
      ]
    },
    {
      "primitives": [
        {
          "mode": 4,
          "attributes": {
            "POSITION": 24,
            "NORMAL": 25,
            "TEXCOORD_0": 26
          },
          "indices": 27,
          "material": 1
        }
      ]
    },
    {
      "primitives": [
        {
          "mode": 4,
          "attributes": {
            "POSITION": 28,
            "NORMAL": 29,
            "TEXCOORD_0": 30
          },
          "indices": 31,
          "material": 1
        }
      ]
    }
  ]
}