{
  "asset": {
    "generator": "Khronos glTF Blender I/O v1.7.33",
    "version": "2.0"
  },
  "scene": 0,
  "scenes": [
    {
      "name": "Scene",
      "nodes": [
        0,
        1,
        2,
        3,
        4,
        5,
        6,
        7
      ]
    }
  ],
  "nodes": [
    {
      "mesh": 0,
      "name": "Cube",
      "translation": [
        -8.31724739074707,
        0,
        1.7157468795776367
      ]
    },
    {
      "mesh": 1,
      "name": "Cube.001",
      "translation": [
        -8.5091342926025391,
        0,
        -2.2905998229980469
      ]
    },
    {
      "mesh": 2,
      "name": "Cube.002",
      "translation": [
        -4.7795138359069824,
        0,
        0
      ]
    },
    {
      "mesh": 3,
      "name": "Cube.003",
      "translation": [
        -1.6830675601959229,
        0,
        0
      ]
    },
    {
      "mesh": 4,
      "name": "Sphere",
      "scale": [
        -1.5720417499542236,
        -1.5720417499542236,
        -1.5720417499542236
      ],
      "translation": [
        -2.7616813182830811,
        0,
        -3.79166579246521
      ]
    },
    {
      "mesh": 5,
      "name": "Sphere.001",
      "scale": [
        -1.5720417499542236,
        -1.5720417499542236,
        -1.5720417499542236
      ],
      "translation": [
        -2.7616813182830811,
        0,
        3.6718523502349854
      ]
    },
    {
      "mesh": 6,
      "name": "Cube.006",
      "translation": [
        2.8751649856567383,
        0,
        0
      ]
    },
    {
      "mesh": 7,
      "name": "Cube.007",
      "translation": [
        5.971611499786377,
        0,
        0
      ]
    }
  ],
  "materials": [
    {
      "doubleSided": true,
      "name": "Material",
      "pbrMetallicRoughness": {
        "baseColorFactor": [
          0.800000011920929,
          0.800000011920929,
          0.800000011920929,
          1
        ],
        "metallicFactor": 0,
        "roughnessFactor": 0.40000000596046448
      }
    }
  ],
  "meshes": [
    {
      "name": "Cube",
      "primitives": [
        {
          "attributes": {
            "POSITION": 0,
            "NORMAL": 1,
            "TEXCOORD_0": 2
          },
          "indices": 3,
          "material": 0
        }
      ]
    },
    {
      "name": "Cube.001",
      "primitives": [
        {
          "attributes": {
            "POSITION": 4,
            "NORMAL": 5,
            "TEXCOORD_0": 6
          },
          "indices": 7,
          "material": 0
        }
      ]
    },
    {
      "name": "Cube.002",
      "primitives": [
        {
          "attributes": {
            "POSITION": 8,
            "NORMAL": 9,
            "TEXCOORD_0": 10
          },
          "indices": 7,
          "material": 0
        }
      ]
    },
    {
      "name": "Cube.003",
      "primitives": [
        {
          "attributes": {
            "POSITION": 11,
            "NORMAL": 12,
            "TEXCOORD_0": 13
          },
          "indices": 14,
          "material": 0
        }
      ]
    },
    {
      "name": "Sphere",
      "primitives": [
        {
          "attributes": {
            "POSITION": 15,
            "NORMAL": 16,
            "TEXCOORD_0": 17
          },
          "indices": 18
        }
      ]
    },
    {
      "name": "Sphere.001",
      "primitives": [
        {
          "attributes": {
            "POSITION": 19,
            "NORMAL": 20,
            "TEXCOORD_0": 21
          },
          "indices": 22
        }
      ]
    },
    {
      "name": "Cube.006",
      "primitives": [
        {
          "attributes": {
            "POSITION": 23,
            "NORMAL": 24,
            "TEXCOORD_0": 25
          },
          "indices": 26,
          "material": 0
        }
      ]
    },
    {
      "name": "Cube.007",
      "primitives": [
        {
          "attributes": {
            "POSITION": 27,
            "NORMAL": 28,
            "TEXCOORD_0": 29
          },
          "indices": 30,
          "material": 0
        }
      ]
    }
  ],
  "accessors": [
    {
      "bufferView": 0,
      "componentType": 5126,
      "count": 24,
      "max": [
        1,
        1,
        1
      ],
      "min": [
        -1,
        -1,
        -1
      ],
      "type": "VEC3"
    },
    {
      "bufferView": 1,
      "componentType": 5126,
      "count": 24,
      "type": "VEC3"
    },
    {
      "bufferView": 2,
      "componentType": 5126,
      "count": 24,
      "type": "VEC2"
    },
    {
      "bufferView": 3,
      "componentType": 5123,
      "count": 36,
      "type": "SCALAR"
    },
    {
      "bufferView": 4,
      "componentType": 5126,
      "count": 42,
      "max": [
        1,
        1,
        1
      ],
      "min": [
        -1,
        -1,
        -1
      ],
      "type": "VEC3"
    },
    {
      "bufferView": 5,
      "componentType": 5126,
      "count": 42,
      "type": "VEC3"
    },
    {
      "bufferView": 6,
      "componentType": 5126,
      "count": 42,
      "type": "VEC2"
    },
    {
      "bufferView": 7,
      "componentType": 5123,
      "count": 96,
      "type": "SCALAR"
    },
    {
      "bufferView": 8,
      "componentType": 5126,
      "count": 42,
      "max": [
        1,
        1,
        1
      ],
      "min": [
        -1,
        -1,
        -1
      ],
      "type": "VEC3"
    },
    {
      "bufferView": 9,
      "componentType": 5126,
      "count": 42,
      "type": "VEC3"
    },
    {
      "bufferView": 10,
      "componentType": 5126,
      "count": 42,
      "type": "VEC2"
    },
    {
      "bufferView": 11,
      "componentType": 5126,
      "count": 29,
      "max": [
        1,
        1,
        1
      ],
      "min": [
        -1,
        -1,
        -1
      ],
      "type": "VEC3"
    },
    {
      "bufferView": 12,
      "componentType": 5126,
      "count": 29,
      "type": "VEC3"
    },
    {
      "bufferView": 13,
      "componentType": 5126,
      "count": 29,
      "type": "VEC2"
    },
    {
      "bufferView": 14,
      "componentType": 5123,
      "count": 96,
      "type": "SCALAR"
    },
    {
      "bufferView": 15,
      "componentType": 5126,
      "count": 1984,
      "max": [
        0.99999970197677612,
        1,
        0.99999940395355225
      ],
      "min": [
        -0.99999904632568359,
        -1,
        -0.99999874830245972
      ],
      "type": "VEC3"
    },
    {
      "bufferView": 16,
      "componentType": 5126,
      "count": 1984,
      "type": "VEC3"
    },
    {
      "bufferView": 17,
      "componentType": 5126,
      "count": 1984,
      "type": "VEC2"
    },
    {
      "bufferView": 18,
      "componentType": 5123,
      "count": 2880,
      "type": "SCALAR"
    },
    {
      "bufferView": 19,
      "componentType": 5126,
      "count": 559,
      "max": [
        0.99999970197677612,
        1,
        0.99999940395355225
      ],
      "min": [
        -0.99999904632568359,
        -1,
        -0.99999874830245972
      ],
      "type": "VEC3"
    },
    {
      "bufferView": 20,
      "componentType": 5126,
      "count": 559,
      "type": "VEC3"
    },
    {
      "bufferView": 21,
      "componentType": 5126,
      "count": 559,
      "type": "VEC2"
    },
    {
      "bufferView": 22,
      "componentType": 5123,
      "count": 2880,
      "type": "SCALAR"
    },
    {
      "bufferView": 23,
      "componentType": 5126,
      "count": 1024,
      "max": [
        0.958333432674408,
        0.958333432674408,
        1
      ],
      "min": [
        -0.958333432674408,
        -0.958333432674408,
        -1
      ],
      "type": "VEC3"
    },
    {
      "bufferView": 24,
      "componentType": 5126,
      "count": 1024,
      "type": "VEC3"
    },
    {
      "bufferView": 25,
      "componentType": 5126,
      "count": 1024,
      "type": "VEC2"
    },
    {
      "bufferView": 26,
      "componentType": 5123,
      "count": 1536,
      "type": "SCALAR"
    },
    {
      "bufferView": 27,
      "componentType": 5126,
      "count": 305,
      "max": [
        0.958333432674408,
        0.958333432674408,
        1
      ],
      "min": [
        -0.958333432674408,
        -0.958333432674408,
        -1
      ],
      "type": "VEC3"
    },
    {
      "bufferView": 28,
      "componentType": 5126,
      "count": 305,
      "type": "VEC3"
    },
    {
      "bufferView": 29,
      "componentType": 5126,
      "count": 305,
      "type": "VEC2"
    },
    {
      "bufferView": 30,
      "componentType": 5123,
      "count": 1536,
      "type": "SCALAR"
    }
  ],
  "bufferViews": [
    {
      "buffer": 0,
      "byteLength": 288,
      "byteOffset": 0
    },
    {
      "buffer": 0,
      "byteLength": 288,
      "byteOffset": 288
    },
    {
      "buffer": 0,
      "byteLength": 192,
      "byteOffset": 576
    },
    {
      "buffer": 0,
      "byteLength": 72,
      "byteOffset": 768
    },
    {
      "buffer": 0,
      "byteLength": 504,
      "byteOffset": 840
    },
    {
      "buffer": 0,
      "byteLength": 504,
      "byteOffset": 1344
    },
    {
      "buffer": 0,
      "byteLength": 336,
      "byteOffset": 1848
    },
    {
      "buffer": 0,
      "byteLength": 192,
      "byteOffset": 2184
    },
    {
      "buffer": 0,
      "byteLength": 504,
      "byteOffset": 2376
    },
    {
      "buffer": 0,
      "byteLength": 504,
      "byteOffset": 2880
    },
    {
      "buffer": 0,
      "byteLength": 336,
      "byteOffset": 3384
    },
    {
      "buffer": 0,
      "byteLength": 348,
      "byteOffset": 3720
    },
    {
      "buffer": 0,
      "byteLength": 348,
      "byteOffset": 4068
    },
    {
      "buffer": 0,
      "byteLength": 232,
      "byteOffset": 4416
    },
    {
      "buffer": 0,
      "byteLength": 192,
      "byteOffset": 4648
    },
    {
      "buffer": 0,
      "byteLength": 23808,
      "byteOffset": 4840
    },
    {
      "buffer": 0,
      "byteLength": 23808,
      "byteOffset": 28648
    },
    {
      "buffer": 0,
      "byteLength": 15872,
      "byteOffset": 52456
    },
    {
      "buffer": 0,
      "byteLength": 5760,
      "byteOffset": 68328
    },
    {
      "buffer": 0,
      "byteLength": 6708,
      "byteOffset": 74088
    },
    {
      "buffer": 0,
      "byteLength": 6708,
      "byteOffset": 80796
    },
    {
      "buffer": 0,
      "byteLength": 4472,
      "byteOffset": 87504
    },
    {
      "buffer": 0,
      "byteLength": 5760,
      "byteOffset": 91976
    },
    {
      "buffer": 0,
      "byteLength": 12288,
      "byteOffset": 97736
    },
    {
      "buffer": 0,
      "byteLength": 12288,
      "byteOffset": 110024
    },
    {
      "buffer": 0,
      "byteLength": 8192,
      "byteOffset": 122312
    },
    {
      "buffer": 0,
      "byteLength": 3072,
      "byteOffset": 130504
    },
    {
      "buffer": 0,
      "byteLength": 3660,
      "byteOffset": 133576
    },
    {
      "buffer": 0,
      "byteLength": 3660,
      "byteOffset": 137236
    },
    {
      "buffer": 0,
      "byteLength": 2440,
      "byteOffset": 140896
    },
    {
      "buffer": 0,
      "byteLength": 3072,
      "byteOffset": 143336
    }
  ],
  "buffers": [
    {
      "byteLength": 146408,
      "uri": "Test material.bin"
    }
  ]
}